<svg width="84" height="59" viewBox="0 0 84 59" fill="none" xmlns="http://www.w3.org/2000/svg">
<path fill-rule="evenodd" clip-rule="evenodd" d="M9.00915 0.470703C14.5348 0.470703 18.0183 7.8482 18.0183 14.4849C18.0183 20.0814 15.545 23.3539 11.4546 24.2484C11.4009 25.5315 11.3472 27.1937 11.2935 29.2347C11.2747 29.9489 11.2559 30.7035 11.2371 31.4985L11.4184 37.1199C11.7842 37.0786 12.1408 37.0463 12.4883 37.0231C12.9308 36.9936 13.4028 36.9641 13.9044 36.9346C15.2614 36.8756 16.5743 36.8019 17.8428 36.7134C19.1409 36.6249 20.2767 36.6249 21.2502 36.7134C21.3978 32.4946 21.442 29.338 21.383 27.2434C21.324 25.1193 21.2945 23.8655 21.2945 23.4819C21.2945 23.3049 21.4863 23.0984 21.8698 22.8624C22.2533 22.6264 22.6663 22.4199 23.1088 22.2429C23.5809 22.0364 24.0086 21.9036 24.3922 21.8446C24.7757 21.7561 24.9822 21.7708 25.0117 21.8889C25.0412 22.0954 25.0412 22.6116 25.0117 23.4377C25.0117 24.2637 24.9969 25.429 24.9674 26.9336V32.4651C24.9969 34.6778 25.0559 37.2591 25.1444 40.2093C25.0854 41.5664 25.0559 42.9824 25.0559 44.4575C25.0559 45.7261 25.0854 47.1421 25.1444 48.7057C25.2034 50.2693 25.3362 51.8476 25.5427 53.4407C25.1592 53.7652 24.7462 54.016 24.3036 54.193C23.8611 54.37 23.4334 54.5175 23.0203 54.6355C22.5483 54.7535 22.0763 54.842 21.6043 54.901C21.3387 54.9305 21.1175 54.8715 20.9405 54.724C20.793 54.606 20.6897 54.4438 20.6307 54.2373C20.5717 54.0602 20.5275 53.8685 20.498 53.662V53.0867V51.9804C20.5275 51.6559 20.557 51.3904 20.5865 51.1838C20.6455 49.9153 20.7192 48.3812 20.8077 46.5816C20.8962 44.782 20.9847 42.7759 21.0732 40.5633C20.8667 40.5338 20.675 40.5191 20.498 40.5191C20.3209 40.4896 20.1144 40.4601 19.8784 40.4306C18.5509 40.342 17.1053 40.342 15.5417 40.4306C14.1838 40.5089 12.849 40.6335 11.5373 40.8043L12.0122 55.5266C12.0122 59.5307 6.0061 59.5307 6.0061 55.5266L6.45003 41.7647C6.36607 41.792 6.26947 41.8193 6.16022 41.8466C5.80621 41.9646 5.43744 41.9499 5.05392 41.8024C4.6999 41.6254 4.37538 41.3598 4.08037 41.0058C3.78535 40.6518 3.54934 40.2388 3.37233 39.7668C3.22482 39.2947 3.15107 38.7932 3.15107 38.2622C3.53459 38.2032 3.94761 38.1442 4.39013 38.0852C4.83266 37.9967 5.24568 37.9229 5.6292 37.8639C5.9541 37.8206 6.27106 37.7773 6.58006 37.734L7.00712 24.4951V24.3349C2.65269 23.5842 0 20.2808 0 14.4849C0 7.8482 3.48354 0.470703 9.00915 0.470703Z" fill="#7A44FF"/>
<path fill-rule="evenodd" clip-rule="evenodd" d="M72.8484 39.632C72.2879 39.042 71.6979 38.6142 71.0784 38.3487C71.9929 37.5227 72.7452 36.7409 73.3352 36.0033C73.9252 35.2363 74.3825 34.543 74.707 33.9235C75.0611 33.2744 75.2823 32.7287 75.3708 32.2861C75.4888 31.8141 75.5036 31.4601 75.4151 31.2241C75.2971 30.8996 74.8988 30.7521 74.2203 30.7816C73.9548 30.7816 73.6597 30.8406 73.3352 30.9586C73.0697 31.0471 72.7599 31.1798 72.4059 31.3568C72.0814 31.5043 71.7569 31.6961 71.4324 31.9321C71.3734 32.7877 71.1521 33.599 70.7686 34.366C70.3851 35.1035 69.913 35.7968 69.3525 36.4459C68.792 37.0949 68.202 37.6849 67.5824 38.2159C66.9629 38.747 66.3729 39.2337 65.8123 39.6763C65.8418 38.9977 65.8566 38.2897 65.8566 37.5522C65.8861 36.8146 65.9303 36.0476 65.9893 35.251C66.0483 33.9235 66.1221 32.4484 66.2106 30.8258C66.2696 29.4392 66.3434 27.8462 66.4319 26.0466C66.5204 24.247 66.6089 22.3294 66.6974 20.2938C66.7269 20.0283 66.5056 19.8955 66.0336 19.8955C65.5911 19.8955 65.0895 19.9693 64.529 20.1168C63.9685 20.2643 63.4522 20.4708 62.9802 20.7363C62.5377 20.9723 62.3164 21.2083 62.3164 21.4443L62.5819 47.2877C62.6114 48.2317 62.8474 48.807 63.29 49.0135C63.762 49.2495 64.293 49.279 64.883 49.102C65.06 49.0725 65.2518 49.0135 65.4583 48.925C65.6058 48.866 65.7828 48.7922 65.9893 48.7037C66.1959 48.5857 66.4024 48.453 66.6089 48.3055C66.3729 47.9514 66.1811 47.2582 66.0336 46.2256C65.9156 45.193 65.8418 43.8802 65.8123 42.2871C66.2254 42.0511 66.6974 41.7561 67.2284 41.4021C67.7889 41.0186 68.3937 40.5761 69.0428 40.0745C69.4263 40.2515 69.736 40.5023 69.972 40.8268C70.2376 41.1513 70.4441 41.5054 70.5916 41.8889C70.7391 42.2724 70.8423 42.6707 70.9013 43.0837C70.9603 43.4967 71.0046 43.895 71.0341 44.2785C71.1226 45.193 71.2554 46.0781 71.4324 46.9336C71.6094 47.7892 71.8749 48.5415 72.2289 49.1905C72.5829 49.8395 73.0697 50.3263 73.6892 50.6508C74.3088 51.0048 75.1053 51.1376 76.0789 51.0491C76.4919 51.0491 76.8901 50.9901 77.2737 50.8721C77.5982 50.8131 77.9375 50.7098 78.2915 50.5623C78.675 50.4148 78.9995 50.2231 79.265 49.987C78.262 49.633 77.4359 49.22 76.7869 48.748C76.1674 48.2465 75.6658 47.6859 75.2823 47.0664C74.8988 46.4174 74.6038 45.6946 74.3973 44.898C74.1908 44.1015 74.0285 43.2017 73.9105 42.1986C73.763 41.0481 73.409 40.1925 72.8484 39.632ZM79.1323 32.6844C78.6603 32.8909 78.4243 33.0827 78.4243 33.2597C78.4538 33.9382 78.5128 34.956 78.6013 36.3131C78.6898 37.6407 78.675 39.5288 78.557 41.9774C78.498 43.2165 78.4833 44.2785 78.5128 45.1636C78.5423 46.0191 78.5865 46.7271 78.6455 47.2877C78.7045 47.8187 78.7635 48.2317 78.8225 48.5267C78.8815 48.8218 78.9405 49.0283 78.9995 49.1463C79.029 49.2643 79.206 49.3233 79.5306 49.3233C79.8551 49.3233 80.1944 49.279 80.5484 49.1905C80.9024 49.1315 81.2269 49.0283 81.5219 48.8808C81.8169 48.7333 81.9644 48.5857 81.9644 48.4382C81.9349 47.6122 81.9349 46.8009 81.9644 46.0044C81.9939 45.2078 82.0382 44.485 82.0972 43.836C82.1562 43.069 82.2152 42.3609 82.2742 41.7119C82.3037 41.0924 82.3627 40.3401 82.4512 39.455C82.5397 38.5405 82.6282 37.6407 82.7167 36.7556C82.8052 35.8411 82.879 34.9856 82.938 34.189C82.997 33.363 83.0265 32.7287 83.0265 32.2862C83.0265 32.0502 82.7757 31.9469 82.2742 31.9764C81.8022 31.9764 81.2712 32.0502 80.6811 32.1977C80.1206 32.3157 79.6043 32.4779 79.1323 32.6844ZM83.2035 24.9845C82.6725 24.6305 82.1119 24.4535 81.5219 24.4535C80.8729 24.4535 80.3419 24.5568 79.9288 24.7633C79.5158 24.9698 79.1913 25.2353 78.9553 25.5598C78.7193 25.8548 78.557 26.1941 78.4685 26.5776C78.38 26.9316 78.3358 27.2562 78.3358 27.5512C78.3358 27.7872 78.3653 28.0379 78.4243 28.3035C78.4833 28.569 78.5865 28.8197 78.734 29.0557C78.911 29.2623 79.147 29.454 79.4421 29.631C79.7371 29.7785 80.1206 29.8523 80.5926 29.8523C80.9466 29.8523 81.3302 29.7638 81.7432 29.5868C82.1562 29.3803 82.525 29.1148 82.8495 28.7902C83.174 28.4657 83.4395 28.0969 83.646 27.6839C83.882 27.2709 84 26.8431 84 26.4006C84 25.8106 83.7345 25.3386 83.2035 24.9845ZM80.9909 28.392C80.7844 28.51 80.5926 28.569 80.4156 28.569C80.1796 28.569 80.0616 28.4215 80.0616 28.1264C80.0616 27.9494 80.1206 27.7724 80.2386 27.5954C80.3861 27.3889 80.5631 27.2119 80.7696 27.0644C80.9761 26.8874 81.1827 26.7399 81.3892 26.6219C81.6252 26.5039 81.8169 26.4449 81.9644 26.4449C82.2005 26.4449 82.3185 26.5629 82.3185 26.7989C82.3185 26.9464 82.2447 27.1234 82.0972 27.3299C81.9792 27.5364 81.8169 27.7282 81.6104 27.9052C81.4334 28.0822 81.2269 28.2445 80.9909 28.392ZM50.4126 47.7302C50.383 47.9072 50.2208 48.0989 49.9258 48.3055C49.6603 48.4825 49.3357 48.6447 48.9522 48.7922C48.5982 48.9397 48.2589 49.0282 47.9344 49.0577C47.6099 49.1167 47.3886 49.0872 47.2706 48.9692C47.1526 48.8512 46.9609 48.63 46.6954 48.3055C46.4298 47.9809 46.2676 47.4499 46.2086 46.7124C46.1496 45.9453 46.1201 44.9865 46.1201 43.836C46.1201 42.6559 46.1053 41.3578 46.0758 39.9418V38.1717C46.0758 37.6407 46.0611 37.0211 46.0316 36.3131C46.0316 35.6051 46.0168 34.8675 45.9873 34.1005C46.2528 33.953 46.5184 33.8202 46.7839 33.7022C47.0789 33.5547 47.3444 33.4367 47.5804 33.3482C47.8459 33.2302 48.0967 33.1417 48.3327 33.0827C48.9522 32.9057 49.4243 32.8024 49.7488 32.7729C50.0733 32.7434 50.265 32.8467 50.324 33.0827C50.3535 33.2597 50.3388 33.6875 50.2798 34.366C50.2208 34.956 50.147 35.8558 50.0585 37.0654C49.97 38.2454 49.8225 39.8975 49.616 42.0216C49.9995 41.0776 50.3093 40.2663 50.5453 39.5878C50.8108 38.9092 51.0321 38.3634 51.2091 37.9504C51.3861 37.4489 51.5484 37.0506 51.6959 36.7556C51.8434 36.3721 52.0351 35.9443 52.2711 35.4723C52.5072 35.0003 52.7432 34.5578 52.9792 34.1447C53.2447 33.7317 53.4807 33.3629 53.6872 33.0384C53.9232 32.7139 54.1002 32.5221 54.2182 32.4631C54.3067 32.4041 54.5723 32.4041 55.0148 32.4631C55.4573 32.5221 55.9293 32.6697 56.4309 32.9057C56.9324 33.1122 57.4192 33.4219 57.8912 33.835C58.3632 34.2185 58.673 34.6905 58.8205 35.251C58.9975 35.9001 59.0565 36.7556 58.9975 37.8177C58.968 38.8797 58.8942 39.9713 58.7762 41.0923C58.6877 42.2134 58.614 43.2754 58.555 44.2785C58.496 45.2815 58.555 46.0486 58.732 46.5796C58.791 46.8746 58.8795 47.1401 58.9975 47.3762C59.0565 47.6122 59.1302 47.8334 59.2188 48.0399C59.3368 48.2169 59.4548 48.3497 59.5728 48.4382C58.8647 48.7627 58.2895 48.9987 57.8469 49.1462C57.4044 49.2938 57.0651 49.397 56.8291 49.456C56.5341 49.5445 56.3276 49.574 56.2096 49.5445C55.9441 49.456 55.7081 49.2347 55.5016 48.8807C55.3246 48.5267 55.1623 47.9662 55.0148 47.1991C54.9558 46.9631 54.9263 46.5796 54.9263 46.0486C54.9558 45.4881 55 44.8685 55.059 44.19C55.118 43.482 55.177 42.7592 55.236 42.0216C55.3246 41.2546 55.3836 40.5466 55.4131 39.8975C55.4721 39.219 55.5163 38.6437 55.5458 38.1717C55.5753 37.6702 55.5753 37.3309 55.5458 37.1539C55.3983 36.6229 55.1918 36.2541 54.9263 36.0476C54.6608 35.8116 54.4543 35.7821 54.3067 35.9591C53.9232 36.4016 53.5102 37.1244 53.0677 38.1274C52.6547 39.101 52.2564 40.1778 51.8729 41.3578C51.4894 42.5084 51.1648 43.659 50.8993 44.8095C50.6338 45.9601 50.4716 46.9336 50.4126 47.7302ZM42.2702 47.2434C42.1522 47.0664 42.0637 46.8746 42.0047 46.6681C41.9457 46.4616 41.9162 45.9601 41.9162 45.1635C41.9457 44.3375 41.9752 43.3787 42.0047 42.2872C42.0637 41.1956 42.1227 40.045 42.1817 38.8355C42.2407 37.5964 42.285 36.4606 42.3145 35.4281C42.3735 34.366 42.403 33.4957 42.403 32.8172C42.403 32.1091 42.3735 31.7404 42.3145 31.7109C42.226 31.6814 42.0489 31.6814 41.7834 31.7109C41.5179 31.7109 41.2229 31.7551 40.8984 31.8436C40.5739 31.9321 40.2789 32.0501 40.0133 32.1976C39.7478 32.3156 39.5708 32.4484 39.4823 32.5959C39.4233 32.8024 39.3348 33.2154 39.2168 33.835C39.1283 34.366 39.025 35.1478 38.907 36.1803C38.8185 37.1834 38.7005 38.57 38.553 40.3401C38.1695 41.5791 37.7565 42.5527 37.314 43.2607C36.9009 43.9687 36.5027 44.4998 36.1191 44.8538C35.6766 45.2668 35.2193 45.5471 34.7473 45.6946C33.9508 45.8421 33.3165 45.4733 32.8445 44.5883C32.402 43.7032 32.3282 42.5379 32.6232 41.0923C32.8297 39.9418 33.1247 38.9682 33.5083 38.1717C33.8918 37.3751 34.3343 36.6966 34.8358 36.1361C35.3669 35.5756 35.9421 35.1035 36.5617 34.72C37.1812 34.307 37.845 33.9382 38.553 33.6137C38.494 33.3777 38.4203 33.1712 38.3318 32.9942C38.2433 32.7877 38.1695 32.6254 38.1105 32.5074C38.022 32.3894 37.9482 32.2861 37.8892 32.1976C37.7122 31.9616 37.5057 31.8289 37.2697 31.7994C37.0337 31.7699 36.7534 31.7994 36.4289 31.8879C36.3109 31.9174 36.0454 32.0206 35.6324 32.1976C35.2488 32.3451 34.7768 32.5959 34.2163 32.9499C33.6853 33.2744 33.1247 33.7022 32.5347 34.2332C31.9447 34.7348 31.3842 35.3543 30.8531 36.0918C30.3221 36.8294 29.8648 37.6702 29.4813 38.6142C29.0978 39.5583 28.8618 40.6351 28.7733 41.8446C28.6848 42.9952 28.7585 44.0277 28.9945 44.9423C29.2305 45.8568 29.5698 46.6386 30.0123 47.2877C30.4844 47.9072 31.0449 48.3792 31.6939 48.7037C32.3725 48.9987 33.0805 49.1167 33.818 49.0577C34.4081 48.9987 34.9833 48.807 35.5439 48.4825C36.0454 48.2465 36.5469 47.8777 37.0484 47.3762C37.5795 46.8451 38.0515 46.1371 38.4645 45.2521C38.5235 45.9306 38.5973 46.4911 38.6858 46.9336C38.8038 47.3467 38.9365 47.6712 39.084 47.9072C39.2316 48.2022 39.3938 48.4235 39.5708 48.571C40.0723 48.8955 40.5886 49.0577 41.1196 49.0577C41.6507 49.0577 42.0489 49.0135 42.3145 48.925C42.403 48.8955 42.5062 48.8365 42.6242 48.748C42.8307 48.6005 43.0372 48.3202 43.2438 47.9072C43.0077 47.8777 42.8012 47.8039 42.6242 47.6859C42.4767 47.5384 42.3587 47.3909 42.2702 47.2434Z" fill="black"/>
</svg>
