<svg width="17" height="17" viewBox="0 0 17 17" fill="none" xmlns="http://www.w3.org/2000/svg">
<g id="Leading Icon" clip-path="url(#clip0_22333_2227)">
<path id="Vector" d="M12.1667 1.77783C11.416 1.78951 10.6816 1.99907 10.0378 2.38535C9.39404 2.77162 8.86357 3.32094 8.49999 3.97783C8.13642 3.32094 7.60595 2.77162 6.96215 2.38535C6.31835 1.99907 5.58403 1.78951 4.83333 1.77783C3.63662 1.82983 2.50913 2.35333 1.69718 3.23399C0.885232 4.11464 0.454826 5.28085 0.499993 6.47783C0.499993 9.50917 3.69066 12.8198 6.36666 15.0645C6.96414 15.5666 7.71956 15.8418 8.49999 15.8418C9.28042 15.8418 10.0358 15.5666 10.6333 15.0645C13.3093 12.8198 16.5 9.50917 16.5 6.47783C16.5452 5.28085 16.1148 4.11464 15.3028 3.23399C14.4909 2.35333 13.3634 1.82983 12.1667 1.77783ZM9.77666 14.0445C9.41931 14.3454 8.96716 14.5104 8.49999 14.5104C8.03282 14.5104 7.58067 14.3454 7.22333 14.0445C3.79799 11.1705 1.83333 8.41317 1.83333 6.47783C1.78775 5.63431 2.07757 4.80699 2.63957 4.1763C3.20157 3.54561 3.99015 3.16273 4.83333 3.11117C5.6765 3.16273 6.46509 3.54561 7.02708 4.1763C7.58908 4.80699 7.8789 5.63431 7.83333 6.47783C7.83333 6.65464 7.90356 6.82421 8.02859 6.94924C8.15361 7.07426 8.32318 7.1445 8.49999 7.1445C8.6768 7.1445 8.84637 7.07426 8.9714 6.94924C9.09642 6.82421 9.16666 6.65464 9.16666 6.47783C9.12109 5.63431 9.4109 4.80699 9.9729 4.1763C10.5349 3.54561 11.3235 3.16273 12.1667 3.11117C13.0098 3.16273 13.7984 3.54561 14.3604 4.1763C14.9224 4.80699 15.2122 5.63431 15.1667 6.47783C15.1667 8.41317 13.202 11.1705 9.77666 14.0418V14.0445Z" fill="#FF554A"/>
</g>
<defs>
<clipPath id="clip0_22333_2227">
<rect width="16" height="16" fill="white" transform="translate(0.5 0.5)"/>
</clipPath>
</defs>
</svg>
