<svg width="16" height="18" viewBox="0 0 16 18" fill="none" xmlns="http://www.w3.org/2000/svg">
<path d="M15.8487 7.3995C14.2445 7.3995 12.7572 6.8865 11.5437 6.015V12.3038C11.5437 15.4448 8.9885 17.9993 5.84825 17.9993C4.63475 17.9993 3.509 17.6167 2.58425 16.9672C1.11575 15.936 0.152748 14.2305 0.152748 12.3038C0.152748 9.16275 2.708 6.6075 5.849 6.6075C6.11 6.6075 6.365 6.62925 6.61625 6.663V7.39575V9.822C6.37325 9.74625 6.11675 9.702 5.849 9.702C4.415 9.702 3.248 10.869 3.248 12.3038C3.248 13.3028 3.815 14.1705 4.643 14.6063C5.00375 14.796 5.414 14.9047 5.84975 14.9047C7.25075 14.9047 8.39375 13.7902 8.44625 12.4012L8.4485 0H11.543C11.543 0.2685 11.5692 0.53025 11.6157 0.78525C11.834 1.96425 12.5337 2.976 13.5035 3.60825C14.1785 4.0485 14.984 4.30575 15.848 4.30575L15.8487 7.3995Z" fill="white"/>
</svg>
