<svg width="24" height="25" viewBox="0 0 24 25" fill="none" xmlns="http://www.w3.org/2000/svg">
<g clip-path="url(#clip0_22645_5684)">
<path d="M12 6.02954C11.2089 6.02954 10.4355 6.26414 9.77772 6.70366C9.11993 7.14319 8.60723 7.7679 8.30448 8.49881C8.00173 9.22971 7.92252 10.034 8.07686 10.8099C8.2312 11.5858 8.61216 12.2986 9.17157 12.858C9.73098 13.4174 10.4437 13.7983 11.2196 13.9527C11.9956 14.107 12.7998 14.0278 13.5307 13.7251C14.2616 13.4223 14.8864 12.9096 15.3259 12.2518C15.7654 11.594 16 10.8207 16 10.0295C16 8.96868 15.5786 7.95126 14.8284 7.20111C14.0783 6.45097 13.0609 6.02954 12 6.02954ZM12 12.0295C11.6044 12.0295 11.2178 11.9122 10.8889 11.6925C10.56 11.4727 10.3036 11.1604 10.1522 10.7949C10.0009 10.4295 9.96126 10.0273 10.0384 9.63936C10.1156 9.2514 10.3061 8.89503 10.5858 8.61533C10.8655 8.33562 11.2219 8.14514 11.6098 8.06797C11.9978 7.9908 12.3999 8.03041 12.7654 8.18178C13.1308 8.33316 13.4432 8.5895 13.6629 8.9184C13.8827 9.2473 14 9.63398 14 10.0295C14 10.56 13.7893 11.0687 13.4142 11.4438C13.0391 11.8188 12.5304 12.0295 12 12.0295Z" fill="#7A44FF"/>
<path d="M12.0003 24.0296C11.1583 24.0339 10.3274 23.8364 9.57738 23.4536C8.82733 23.0709 8.17991 22.514 7.68931 21.8296C3.87831 16.5726 1.94531 12.6206 1.94531 10.0826C1.94531 7.41584 3.00468 4.85831 4.89035 2.97263C6.77603 1.08695 9.33356 0.0275879 12.0003 0.0275879C14.6671 0.0275879 17.2246 1.08695 19.1103 2.97263C20.9959 4.85831 22.0553 7.41584 22.0553 10.0826C22.0553 12.6206 20.1223 16.5726 16.3113 21.8296C15.8207 22.514 15.1733 23.0709 14.4232 23.4536C13.6732 23.8364 12.8424 24.0339 12.0003 24.0296ZM12.0003 2.21059C9.91273 2.21297 7.91133 3.04331 6.43518 4.51946C4.95904 5.99561 4.12869 7.99701 4.12631 10.0846C4.12631 12.0946 6.01931 15.8116 9.45531 20.5506C9.74701 20.9524 10.1297 21.2794 10.572 21.5049C11.0144 21.7303 11.5038 21.8479 12.0003 21.8479C12.4968 21.8479 12.9863 21.7303 13.4286 21.5049C13.8709 21.2794 14.2536 20.9524 14.5453 20.5506C17.9813 15.8116 19.8743 12.0946 19.8743 10.0846C19.8719 7.99701 19.0416 5.99561 17.5654 4.51946C16.0893 3.04331 14.0879 2.21297 12.0003 2.21059Z" fill="#7A44FF"/>
</g>
<defs>
<clipPath id="clip0_22645_5684">
<rect width="24" height="24" fill="white" transform="translate(0 0.029541)"/>
</clipPath>
</defs>
</svg>
