<svg width="25" height="24" viewBox="0 0 25 24" fill="none" xmlns="http://www.w3.org/2000/svg">
<g id="fi-rr-grip-dots" clip-path="url(#clip0_22210_4726)">
<path id="Vector" d="M21.3 21C19.37 21 17.8 19.43 17.8 17.5C17.8 15.57 19.37 14 21.3 14C23.23 14 24.8 15.57 24.8 17.5C24.8 19.43 23.23 21 21.3 21ZM21.3 16C20.473 16 19.8 16.673 19.8 17.5C19.8 18.327 20.473 19 21.3 19C22.127 19 22.8 18.327 22.8 17.5C22.8 16.673 22.127 16 21.3 16ZM12.8 21C10.87 21 9.30005 19.43 9.30005 17.5C9.30005 15.57 10.87 14 12.8 14C14.73 14 16.3 15.57 16.3 17.5C16.3 19.43 14.73 21 12.8 21ZM12.8 16C11.973 16 11.3 16.673 11.3 17.5C11.3 18.327 11.973 19 12.8 19C13.627 19 14.3 18.327 14.3 17.5C14.3 16.673 13.627 16 12.8 16ZM4.30005 21C2.37005 21 0.800049 19.43 0.800049 17.5C0.800049 15.57 2.37005 14 4.30005 14C6.23005 14 7.80005 15.57 7.80005 17.5C7.80005 19.43 6.23005 21 4.30005 21ZM4.30005 16C3.47305 16 2.80005 16.673 2.80005 17.5C2.80005 18.327 3.47305 19 4.30005 19C5.12705 19 5.80005 18.327 5.80005 17.5C5.80005 16.673 5.12705 16 4.30005 16ZM21.3 10C19.37 10 17.8 8.43 17.8 6.5C17.8 4.57 19.37 3 21.3 3C23.23 3 24.8 4.57 24.8 6.5C24.8 8.43 23.23 10 21.3 10ZM21.3 5C20.473 5 19.8 5.673 19.8 6.5C19.8 7.327 20.473 8 21.3 8C22.127 8 22.8 7.327 22.8 6.5C22.8 5.673 22.127 5 21.3 5ZM12.8 10C10.87 10 9.30005 8.43 9.30005 6.5C9.30005 4.57 10.87 3 12.8 3C14.73 3 16.3 4.57 16.3 6.5C16.3 8.43 14.73 10 12.8 10ZM12.8 5C11.973 5 11.3 5.673 11.3 6.5C11.3 7.327 11.973 8 12.8 8C13.627 8 14.3 7.327 14.3 6.5C14.3 5.673 13.627 5 12.8 5ZM4.30005 10C2.37005 10 0.800049 8.43 0.800049 6.5C0.800049 4.57 2.37005 3 4.30005 3C6.23005 3 7.80005 4.57 7.80005 6.5C7.80005 8.43 6.23005 10 4.30005 10ZM4.30005 5C3.47305 5 2.80005 5.673 2.80005 6.5C2.80005 7.327 3.47305 8 4.30005 8C5.12705 8 5.80005 7.327 5.80005 6.5C5.80005 5.673 5.12705 5 4.30005 5Z" fill="#151A2D"/>
</g>
<defs>
<clipPath id="clip0_22210_4726">
<rect width="24" height="24" fill="white" transform="translate(0.800049)"/>
</clipPath>
</defs>
</svg>
