<svg width="17" height="17" viewBox="0 0 17 17" fill="none" xmlns="http://www.w3.org/2000/svg">
<g clip-path="url(#clip0_22719_4063)">
<path d="M12.1667 1.77808C11.416 1.78975 10.6816 1.99931 10.0378 2.38559C9.39404 2.77187 8.86357 3.32119 8.49999 3.97808C8.13642 3.32119 7.60595 2.77187 6.96215 2.38559C6.31835 1.99931 5.58403 1.78975 4.83333 1.77808C3.63662 1.83007 2.50913 2.35358 1.69718 3.23423C0.885232 4.11488 0.454826 5.28109 0.499993 6.47808C0.499993 9.50941 3.69066 12.8201 6.36666 15.0647C6.96414 15.5668 7.71956 15.8421 8.49999 15.8421C9.28042 15.8421 10.0358 15.5668 10.6333 15.0647C13.3093 12.8201 16.5 9.50941 16.5 6.47808C16.5452 5.28109 16.1148 4.11488 15.3028 3.23423C14.4909 2.35358 13.3634 1.83007 12.1667 1.77808ZM9.77666 14.0447C9.41931 14.3457 8.96716 14.5107 8.49999 14.5107C8.03282 14.5107 7.58067 14.3457 7.22333 14.0447C3.79799 11.1707 1.83333 8.41341 1.83333 6.47808C1.78775 5.63455 2.07757 4.80723 2.63957 4.17654C3.20157 3.54586 3.99015 3.16298 4.83333 3.11141C5.6765 3.16298 6.46509 3.54586 7.02708 4.17654C7.58908 4.80723 7.8789 5.63455 7.83333 6.47808C7.83333 6.65489 7.90356 6.82446 8.02859 6.94948C8.15361 7.07451 8.32318 7.14474 8.49999 7.14474C8.6768 7.14474 8.84637 7.07451 8.9714 6.94948C9.09642 6.82446 9.16666 6.65489 9.16666 6.47808C9.12109 5.63455 9.4109 4.80723 9.9729 4.17654C10.5349 3.54586 11.3235 3.16298 12.1667 3.11141C13.0098 3.16298 13.7984 3.54586 14.3604 4.17654C14.9224 4.80723 15.2122 5.63455 15.1667 6.47808C15.1667 8.41341 13.202 11.1707 9.77666 14.0421V14.0447Z" fill="#FF554A"/>
</g>
<defs>
<clipPath id="clip0_22719_4063">
<rect width="16" height="16" fill="white" transform="translate(0.5 0.5)"/>
</clipPath>
</defs>
</svg>
